{
  "accessors": [
    {
      "bufferView": 2,
      "componentType": 5126,
      "count": 63630,
      "max": [
        2.9400668144226074,
        2.2262070178985596,
        0.3484538197517395
      ],
      "min": [
        -1.6294516324996948,
        -1.6907659769058228,
        -2.8391013145446777
      ],
      "type": "VEC3"
    },
    {
      "bufferView": 2,
      "byteOffset": 763560,
      "componentType": 5126,
      "count": 63630,
      "max": [
        0.9999153017997742,
        0.9999890327453613,
        0.9998952150344849
      ],
      "min": [
        -0.9999927878379822,
        -0.9999867677688599,
        -0.9999635815620422
      ],
      "type": "VEC3"
    },
    {
      "bufferView": 3,
      "componentType": 5126,
      "count": 63630,
      "max": [
        0.9607843160629272,
        0.929411768913269,
        0.929411768913269,
        1.0
      ],
      "min": [
        0.0313725508749485,
        0.0,
        0.0,
        1.0
      ],
      "type": "VEC4"
    },
    {
      "bufferView": 1,
      "componentType": 5126,
      "count": 63630,
      "max": [
        0.7091391682624817,
        0.9980468153953552
      ],
      "min": [
        0.0019531184807419777,
        0.0019531183643266559
      ],
      "type": "VEC2"
    },
    {
      "bufferView": 0,
      "componentType": 5125,
      "count": 303522,
      "type": "SCALAR"
    },
    {
      "bufferView": 2,
      "byteOffset": 1527120,
      "componentType": 5126,
      "count": 32730,
      "max": [
        2.870616912841797,
        1.0283949375152588,
        -0.19349294900894165
      ],
      "min": [
        -0.9674373865127563,
        -1.627834439277649,
        -2.6745715141296387
      ],
      "type": "VEC3"
    },
    {
      "bufferView": 2,
      "byteOffset": 1919880,
      "componentType": 5126,
      "count": 32730,
      "max": [
        0.9999009966850281,
        0.9998679161071777,
        0.9999051690101624
      ],
      "min": [
        -0.9996524453163147,
        -0.9999967217445374,
        -0.9998804330825806
      ],
      "type": "VEC3"
    },
    {
      "bufferView": 3,
      "byteOffset": 1018080,
      "componentType": 5126,
      "count": 32730,
      "max": [
        0.8352941274642944,
        1.0,
        0.0470588244497776,
        1.0
      ],
      "min": [
        0.8352941274642944,
        1.0,
        0.0470588244497776,
        1.0
      ],
      "type": "VEC4"
    },
    {
      "bufferView": 1,
      "byteOffset": 509040,
      "componentType": 5126,
      "count": 32730,
      "max": [
        1318.088134765625,
        929.4171142578125
      ],
      "min": [
        -872.3633422851563,
        -2286.433837890625
      ],
      "type": "VEC2"
    },
    {
      "bufferView": 0,
      "byteOffset": 1214088,
      "componentType": 5125,
      "count": 186804,
      "type": "SCALAR"
    }
  ],
  "asset": {
    "extras": {
      "author": "E-learning UMCG (https://sketchfab.com/eLearningUMCG)",
      "license": "CC-BY-NC-SA-4.0 (http://creativecommons.org/licenses/by-nc-sa/4.0/)",
      "source": "https://sketchfab.com/3d-models/cardiac-conduction-system-20a5e36391474f2b99e1a4c94c707b47",
      "title": "Cardiac conduction system"
    },
    "generator": "Sketchfab-12.66.0",
    "version": "2.0"
  },
  "bufferViews": [
    {
      "buffer": 0,
      "byteLength": 1961304,
      "name": "floatBufferViews",
      "target": 34963
    },
    {
      "buffer": 0,
      "byteLength": 770880,
      "byteOffset": 1961304,
      "byteStride": 8,
      "name": "floatBufferViews",
      "target": 34962
    },
    {
      "buffer": 0,
      "byteLength": 2312640,
      "byteOffset": 2732184,
      "byteStride": 12,
      "name": "floatBufferViews",
      "target": 34962
    },
    {
      "buffer": 0,
      "byteLength": 1541760,
      "byteOffset": 5044824,
      "byteStride": 16,
      "name": "floatBufferViews",
      "target": 34962
    }
  ],
  "buffers": [
    {
      "byteLength": 6586584,
      "uri": "scene.bin"
    }
  ],
  "extensionsRequired": [
    "KHR_materials_pbrSpecularGlossiness"
  ],
  "extensionsUsed": [
    "KHR_materials_pbrSpecularGlossiness"
  ],
  "materials": [
    {
      "alphaMode": "BLEND",
      "extensions": {
        "KHR_materials_pbrSpecularGlossiness": {
          "diffuseFactor": [
            0.5,
            0.5,
            0.5,
            0.983422256097561
          ],
          "glossinessFactor": 0.0,
          "specularFactor": [
            0.0,
            0.0,
            0.0
          ]
        }
      },
      "name": "Default2"
    },
    {
      "alphaMode": "BLEND",
      "doubleSided": true,
      "emissiveFactor": [
        1.0,
        1.0,
        0.0
      ],
      "extensions": {
        "KHR_materials_pbrSpecularGlossiness": {
          "diffuseFactor": [
            0.5,
            0.5,
            0.5,
            0.6968368902439024
          ],
          "glossinessFactor": 0.0,
          "specularFactor": [
            0.0,
            0.0,
            0.0
          ]
        }
      },
      "name": "Default1"
    }
  ],
  "meshes": [
    {
      "name": "Default2_Default2_0",
      "primitives": [
        {
          "attributes": {
            "COLOR_0": 2,
            "NORMAL": 1,
            "POSITION": 0,
            "TEXCOORD_0": 3
          },
          "indices": 4,
          "material": 0,
          "mode": 4
        }
      ]
    },
    {
      "name": "Default1_Default1_0",
      "primitives": [
        {
          "attributes": {
            "COLOR_0": 7,
            "NORMAL": 6,
            "POSITION": 5,
            "TEXCOORD_0": 8
          },
          "indices": 9,
          "material": 1,
          "mode": 4
        }
      ]
    }
  ],
  "nodes": [
    {
      "children": [
        1
      ],
      "matrix": [
        0.7857086062431335,
        -1.3735608033661902e-16,
        0.6185967922210693,
        0.0,
        0.049634117633104324,
        -0.9967758655548096,
        -0.0630426034331324,
        0.0,
        0.61660236120224,
        0.08023662120103854,
        -0.7831753492355347,
        0.0,
        -0.0864584669470787,
        1.487543821334839,
        -1.362516641616821,
        1.0
      ],
      "name": "Sketchfab_model"
    },
    {
      "children": [
        2
      ],
      "matrix": [
        1.0,
        0.0,
        0.0,
        0.0,
        0.0,
        0.0,
        1.0,
        0.0,
        0.0,
        -1.0,
        0.0,
        0.0,
        0.0,
        0.0,
        0.0,
        1.0
      ],
      "name": "33973abe34f24eab92ea51c3c90eb3ee.fbx"
    },
    {
      "children": [
        3,
        5,
        7
      ],
      "name": "RootNode"
    },
    {
      "children": [
        4
      ],
      "name": "Default2"
    },
    {
      "mesh": 0,
      "name": "Default2_Default2_0"
    },
    {
      "children": [
        6
      ],
      "name": "Default1"
    },
    {
      "mesh": 1,
      "name": "Default1_Default1_0"
    },
    {
      "children": [
        8
      ],
      "matrix": [
        -0.6589954371852573,
        0.7299140010468497,
        -0.18152290446329572,
        0.0,
        -0.04312374316563167,
        0.20427655282009027,
        0.9779628994718181,
        0.0,
        0.7509096860105056,
        0.6523010355991474,
        -0.10314069231822964,
        0.0,
        2464.790771484375,
        -2728.572265625,
        677.0040893554688,
        1.0
      ],
      "name": "ZBrushDefault"
    },
    {
      "name": "Object_8"
    }
  ],
  "scene": 0,
  "scenes": [
    {
      "name": "Sketchfab_Scene",
      "nodes": [
        0
      ]
    }
  ]
}
